<?xml version="1.0" encoding="UTF-8" standalone="no"?>
<!-- Created with Inkscape (http://www.inkscape.org/) -->

<svg
   width="512"
   height="512"
   viewBox="0 0 512 512"
   version="1.1"
   id="svg1"
   inkscape:version="1.3.2 (091e20e, 2023-11-25, custom)"
   sodipodi:docname="full.svg"
   xmlns:inkscape="http://www.inkscape.org/namespaces/inkscape"
   xmlns:sodipodi="http://sodipodi.sourceforge.net/DTD/sodipodi-0.dtd"
   xmlns="http://www.w3.org/2000/svg"
   xmlns:svg="http://www.w3.org/2000/svg">
  <sodipodi:namedview
     id="namedview1"
     pagecolor="#151426"
     bordercolor="#000000"
     borderopacity="0.25"
     inkscape:showpageshadow="2"
     inkscape:pageopacity="0.0"
     inkscape:pagecheckerboard="0"
     inkscape:deskcolor="#d1d1d1"
     inkscape:document-units="px"
     inkscape:zoom="0.40499817"
     inkscape:cx="983.95506"
     inkscape:cy="-35.802631"
     inkscape:window-width="2560"
     inkscape:window-height="1369"
     inkscape:window-x="-8"
     inkscape:window-y="-8"
     inkscape:window-maximized="1"
     inkscape:current-layer="layer4"
     inkscape:export-bgcolor="#151426ff"
     showgrid="false">
    <inkscape:page
       x="0"
       y="0"
       width="512"
       height="512"
       id="page2"
       margin="0"
       bleed="0"
       inkscape:export-filename="Page 1.svg"
       inkscape:export-xdpi="96"
       inkscape:export-ydpi="96" />
    <inkscape:page
       x="522"
       y="0"
       width="512"
       height="512"
       id="page3"
       margin="0"
       bleed="0" />
    <inkscape:page
       x="1044"
       y="0"
       width="512"
       height="512"
       id="page4"
       margin="0"
       bleed="0"
       inkscape:export-filename="full_.svg"
       inkscape:export-xdpi="96"
       inkscape:export-ydpi="96" />
    <inkscape:grid
       id="grid4"
       units="px"
       originx="0"
       originy="0"
       spacingx="1"
       spacingy="1"
       empcolor="#0099e5"
       empopacity="0.30196078"
       color="#0099e5"
       opacity="0.14901961"
       empspacing="5"
       dotted="false"
       gridanglex="30"
       gridanglez="30"
       visible="false" />
  </sodipodi:namedview>
  <defs
     id="defs1">
    <inkscape:path-effect
       effect="fillet_chamfer"
       id="path-effect4"
       is_visible="true"
       lpeversion="1"
       nodesatellites_param="F,0,0,1,0,5,0,1 @ F,0,0,1,0,5,0,1 @ F,0,0,1,0,5,0,1 @ F,0,0,1,0,5,0,1 @ F,0,0,1,0,5,0,1 @ F,0,0,1,0,5,0,1 | F,0,0,1,0,5,0,1 @ F,0,0,1,0,5,0,1 @ F,0,0,1,0,5,0,1 @ F,0,0,1,0,5,0,1 | F,0,0,1,0,5,0,1 @ F,0,0,1,0,5,0,1 @ F,0,0,1,0,5,0,1 @ F,0,0,1,0,5,0,1 @ F,0,0,1,0,5,0,1 @ F,0,0,1,0,5,0,1 @ F,0,0,1,0,5,0,1 @ F,0,0,1,0,5,0,1 @ F,0,0,1,0,5,0,1 @ F,0,0,1,0,5,0,1 | F,0,0,1,0,5,0,1 @ F,0,0,1,0,5,0,1 @ F,0,0,1,0,5,0,1 @ F,0,0,1,0,5,0,1 @ F,0,0,1,0,5,0,1 @ F,0,0,1,0,5,0,1 @ F,0,0,1,0,5,0,1 @ F,0,0,1,0,5,0,1 @ F,0,0,1,0,5,0,1 @ F,0,0,1,0,5,0,1 @ F,0,0,1,0,5,0,1 | F,0,0,1,0,5,0,1 @ F,0,0,1,0,5,0,1 @ F,0,0,1,0,5,0,1 @ F,0,0,1,0,5,0,1 @ F,0,0,1,0,5,0,1 @ F,0,0,1,0,5,0,1 @ F,0,0,1,0,5,0,1 @ F,0,0,1,0,5,0,1 @ F,0,0,1,0,5,0,1 @ F,0,0,1,0,5,0,1 @ F,0,0,1,0,5,0,1 @ F,0,0,1,0,5,0,1 @ F,0,0,1,0,5,0,1 @ F,0,0,1,0,5,0,1 @ F,0,0,1,0,5,0,1 @ F,0,0,1,0,5,0,1 @ F,0,0,1,0,5,0,1 @ F,0,0,1,0,5,0,1 @ F,0,0,1,0,5,0,1 @ F,0,0,1,0,5,0,1 @ F,0,0,1,0,5,0,1 @ F,0,0,1,0,5,0,1 @ F,0,0,1,0,5,0,1 @ F,0,0,1,0,5,0,1"
       radius="5"
       unit="px"
       method="auto"
       mode="F"
       chamfer_steps="1"
       flexible="false"
       use_knot_distance="true"
       apply_no_radius="true"
       apply_with_radius="true"
       only_selected="false"
       hide_knots="false" />
    <inkscape:path-effect
       effect="fill_between_many"
       id="path-effect3"
       is_visible="true"
       lpeversion="1.2"
       linkedpaths=""
       method="bsplinespiro"
       join="true"
       close="true"
       autoreverse="true" />
    <inkscape:path-effect
       effect="fillet_chamfer"
       id="path-effect4-7"
       is_visible="true"
       lpeversion="1"
       nodesatellites_param="F,0,0,1,0,5,0,1 @ F,0,0,1,0,5,0,1 @ F,0,0,1,0,5,0,1 @ F,0,0,1,0,5,0,1 @ F,0,0,1,0,5,0,1 @ F,0,0,1,0,5,0,1"
       radius="5"
       unit="px"
       method="auto"
       mode="F"
       chamfer_steps="1"
       flexible="false"
       use_knot_distance="true"
       apply_no_radius="true"
       apply_with_radius="true"
       only_selected="false"
       hide_knots="false" />
    <inkscape:path-effect
       effect="fillet_chamfer"
       id="path-effect4-7-5"
       is_visible="true"
       lpeversion="1"
       nodesatellites_param="F,0,0,1,0,5,0,1 @ F,0,0,1,0,5,0,1 @ F,0,0,1,0,5,0,1 @ F,0,0,1,0,5,0,1 @ F,0,0,1,0,5,0,1 @ F,0,0,1,0,5,0,1"
       radius="5"
       unit="px"
       method="auto"
       mode="F"
       chamfer_steps="1"
       flexible="false"
       use_knot_distance="true"
       apply_no_radius="true"
       apply_with_radius="true"
       only_selected="false"
       hide_knots="false" />
    <inkscape:path-effect
       effect="fillet_chamfer"
       id="path-effect4-7-5-5"
       is_visible="true"
       lpeversion="1"
       nodesatellites_param="F,0,0,1,0,5,0,1 @ F,0,0,1,0,5,0,1 @ F,0,0,1,0,5,0,1 @ F,0,0,1,0,5,0,1 @ F,0,0,1,0,5,0,1 @ F,0,0,1,0,5,0,1"
       radius="5"
       unit="px"
       method="auto"
       mode="F"
       chamfer_steps="1"
       flexible="false"
       use_knot_distance="true"
       apply_no_radius="true"
       apply_with_radius="true"
       only_selected="false"
       hide_knots="false" />
  </defs>
  <g
     inkscape:label="FILMIN"
     inkscape:groupmode="layer"
     id="layer1"
     transform="translate(22.610908,81.03345)">
    <path
       d="m 202.81199,144.5975 h 24.60994 c 2.68394,0 4.47324,-1.78646 4.47324,-4.46756 V 87.268992 c 0,-1.78646 0.59643,-2.38147 1.19428,-2.38147 0.74696,0 1.34198,0.44591 1.64161,2.38147 l 9.69487,54.052388 c 0.29679,1.78504 1.9384,3.2747 4.02592,3.2747 h 4.77146 c 2.09035,0 3.73054,-1.48966 4.03017,-3.2747 l 9.84398,-54.052388 c 0.44732,-2.08467 1.04233,-2.38147 1.7893,-2.38147 0.74554,0 1.04517,0.59643 1.04517,2.38147 v 52.860948 c 0,2.6811 1.7893,4.46756 4.47324,4.46756 h 24.61278 c 2.68395,0 4.47324,-1.78646 4.47324,-4.46756 V 29.941905 c 0,-2.67968 -1.78929,-4.46756 -4.47324,-4.46756 h -34.90407 c -2.83448,0 -4.17645,1.7893 -4.62377,4.46756 l -7.00951,49.586247 c -0.15052,1.19003 -0.74554,1.78504 -1.6416,1.78504 -0.89607,0 -1.49108,-0.59643 -1.64161,-1.78504 l -6.85898,-49.586247 c -0.29821,-2.67968 -1.94124,-4.46756 -4.62661,-4.46756 h -34.89981 c -2.68537,0 -4.47324,1.7893 -4.47324,4.46756 V 140.12994 c -0.001,2.6811 1.78787,4.46756 4.47324,4.46756 z m -68.61528,-4.46756 c 0,2.6811 1.93982,4.46756 4.47466,4.46756 h 49.22271 c 2.68537,0 4.47324,-1.78646 4.47324,-4.46756 v -14.14397 c 0,-2.532 -1.78787,-4.46898 -4.47324,-4.46898 h -12.67987 c -2.2352,0 -3.28038,-1.04234 -3.28038,-3.2747 V 29.941905 c 0,-2.532 -1.9384,-4.46756 -4.47324,-4.46756 h -28.78922 c -2.53484,0 -4.47324,1.93698 -4.47324,4.46756 V 140.12994 Z m -47.879319,0 c 0,2.6811 1.789297,4.46756 4.474663,4.46756 h 28.789216 c 2.68395,0 4.47325,-1.78646 4.47325,-4.46756 V 29.941905 c 0,-2.67968 -1.7893,-4.46756 -4.47325,-4.46756 H 90.793474 c -2.683946,0 -4.474663,1.7893 -4.474663,4.46756 V 140.12994 Z m -61.30188,4.46756 h 28.787796 c 2.683945,0 4.473242,-1.78646 4.473242,-4.46756 v -38.56645 c 0,-2.233778 1.194285,-3.423808 3.432327,-3.423808 h 11.633271 c 2.683945,0 4.476083,-1.78646 4.476083,-4.46756 v -10.42337 c 0,-2.67968 -1.790717,-4.46614 -4.476083,-4.46614 H 61.708876 c -2.238042,0 -3.432327,-1.19144 -3.432327,-3.42523 V 51.980085 c 0,-2.23378 1.194285,-3.42523 3.432327,-3.42523 h 12.678448 c 2.683945,0 4.473242,-1.78646 4.473242,-4.46614 v -14.14681 c 0,-2.67968 -1.789297,-4.46756 -4.473242,-4.46756 H 25.015511 c -2.683946,0 -4.474663,1.7893 -4.474663,4.46756 V 140.12994 c 0,2.6811 1.789297,4.46756 4.474663,4.46756 z"
       fill="#00ffa1"
       id="path1"
       style="stroke-width:1.42008" />
    <path
       d="m 361.51412,140.12994 c 0,2.6811 1.7893,4.46756 4.47466,4.46756 h 25.95333 c 2.68537,0 4.47608,-1.78646 4.47608,-4.46756 V 98.437902 c 0,-0.74412 0.44733,-1.19287 1.19287,-1.19287 1.04376,0 1.19286,0.74554 1.9384,2.67969 l 14.17095,41.547188 c 0.59644,1.78504 2.08752,3.12417 4.32556,3.12417 h 23.71528 c 2.68395,0 4.47609,-1.78504 4.47609,-4.46614 V 29.941905 c 0,-2.67968 -1.79072,-4.46756 -4.47609,-4.46756 h -25.9519 c -2.68395,0 -4.47467,1.7893 -4.47467,4.46756 v 41.693457 c 0,0.74412 -0.44732,1.19145 -1.19286,1.19145 -0.89465,0 -1.04376,-0.29822 -1.64161,-1.93557 L 394.18157,28.899565 c -0.74554,-2.23236 -2.08751,-3.42522 -4.62377,-3.42522 h -23.5676 c -2.68394,0 -4.47466,1.78788 -4.47466,4.46756 V 140.12994 Z m -47.88074,0 c 0,2.6811 1.7893,4.46756 4.47609,4.46756 h 28.7878 c 2.68394,0 4.47324,-1.78646 4.47324,-4.46756 V 29.941905 c 0,-2.67968 -1.7893,-4.46756 -4.47324,-4.46756 h -28.78922 c -2.68537,0 -4.47609,1.7893 -4.47609,4.46756 V 140.12994 Z"
       fill="#ffffff"
       id="path2"
       style="stroke-width:1.42008" />
  </g>
  <g
     inkscape:groupmode="layer"
     id="layer2"
     inkscape:label="Links">
    <text
       xml:space="preserve"
       style="font-style:normal;font-variant:normal;font-weight:normal;font-stretch:normal;font-size:240.922px;font-family:Haettenschweiler;-inkscape-font-specification:'Haettenschweiler, Normal';font-variant-ligatures:normal;font-variant-caps:normal;font-variant-numeric:normal;font-variant-east-asian:normal;display:none;fill:#ec7445;fill-opacity:1;stroke-width:20.0769"
       x="17.196766"
       y="338.68137"
       id="text1"
       transform="matrix(1.0485482,0,0,0.9536996,22.610908,81.03345)"><tspan
         sodipodi:role="line"
         id="tspan1"
         x="0"
         y="0"
         style="font-style:normal;font-variant:normal;font-weight:normal;font-stretch:normal;font-size:240.922px;font-family:Haettenschweiler;-inkscape-font-specification:'Haettenschweiler, Normal';font-variant-ligatures:normal;font-variant-caps:normal;font-variant-numeric:normal;font-variant-east-asian:normal;fill:#ec7445;fill-opacity:1;stroke-width:20.0769">LINKS</tspan></text>
    <path
       d="M 86.190875,338.68137 H 26.666998 a 5,5 45 0 1 -5,-5 V 174.98891 a 5,5 135 0 1 5,-5 h 27.055874 a 5,5 45 0 1 5,5 v 124.46455 a 5,5 45 0 0 5,5 l 22.468003,0 a 5,5 45 0 1 5,5 v 24.22791 a 5,5 135 0 1 -5,5 z m 42.114295,0 H 101.2493 a 5,5 45 0 1 -5.000004,-5 l 0,-158.69246 a 5,5 135 0 1 5.000004,-5 h 27.05587 a 5,5 45 0 1 5,5 l 0,158.69246 a 5,5 135 0 1 -5,5 z m 101.75661,0 h -28.11462 a 6.5929663,6.5929663 37.176097 0 1 -6.34862,-4.81469 l -22.47722,-80.24582 a 0.68703998,0.68703998 172.1761 0 0 -1.34862,0.18531 v 79.8752 a 5,5 135 0 1 -5,5 h -20.93872 a 5,5 45 0 1 -5,-5 V 174.98891 a 5,5 135 0 1 5,-5 h 32.1143 a 6.5620678,6.5620678 37.305768 0 1 6.32681,4.82074 l 18.52116,67.29357 a 0.67551401,0.67551401 172.30577 0 0 1.32681,-0.17926 v -66.93505 a 5,5 135 0 1 5,-5 h 20.93872 a 5,5 45 0 1 5,5 v 158.69246 a 5,5 135 0 1 -5,5 z m 100.58022,0 h -30.70264 a 6.2649146,6.2649146 38.593209 0 1 -6.1089,-4.87548 l -12.01637,-52.8323 a 0.56143996,0.56143996 173.59321 0 0 -1.1089,0.12452 v 52.58326 a 5,5 135 0 1 -5,5 h -27.05587 a 5,5 45 0 1 -5,-5 l 0,-158.69246 a 5,5 135 0 1 5,-5 h 27.05587 a 5,5 45 0 1 5,5 v 46.23082 a 0.70731404,0.70731404 8.0517954 0 0 1.38687,0.19619 l 13.46027,-46.6232 a 6.647719,6.647719 143.0518 0 1 6.38687,-4.80381 h 24.3502 a 3.7321647,3.7321647 53.261128 0 1 3.57806,4.79355 l -19.97783,67.34795 a 16.869384,16.869384 90.012699 0 0 -0.002,9.58773 l 24.33469,82.16905 a 3.7338906,3.7338906 126.75157 0 1 -3.58019,4.79418 z m 15.17606,-67.52404 h 23.76202 a 5,5 45 0 1 5,5 v 28.7028 c 0,2.76142 -0.23458,7.81663 1.87569,9.43536 0.0862,0.0661 0.17541,0.1298 0.26757,0.191 2.26845,1.50631 7.37316,1.52107 9.55942,-0.0906 0.0355,-0.0261 0.0705,-0.0527 0.10497,-0.0797 2.09695,-1.64014 1.83832,-6.69459 1.83832,-9.45601 v -9.99841 c 0,-2.76142 0.0196,-7.29088 -0.80465,-9.91525 -1.2398,-3.94764 -3.91231,-8.26723 -8.01753,-12.95877 -1.81815,-2.07782 -5.01981,-5.21145 -6.99385,-7.14241 -10.61663,-10.38498 -18.17992,-18.19872 -22.68986,-23.44122 -1.80041,-2.09285 -4.509,-5.68283 -5.76831,-8.13718 -1.32328,-2.57901 -2.22748,-5.26921 -2.7126,-8.07059 -0.47062,-2.7176 -0.42119,-7.21467 -0.42119,-9.97609 v -8.93967 c 0,-2.76142 -0.0393,-7.2474 0.26829,-9.9902 1.94477,-17.34143 14.46269,-26.57873 37.55374,-27.71189 2.75783,-0.13533 7.2389,-0.13827 9.99558,0.017 20.1539,1.13539 31.17398,9.38731 33.06024,24.75577 0.3362,2.73916 0.29216,7.22693 0.29216,9.98835 l 0,19.17415 a 5,5 135 0 1 -5,5 h -23.76202 a 5,5 45 0 1 -5,-5 l 0,-21.05636 c 0,-2.76142 0.21025,-7.96333 -2.05814,-9.28951 -1.69499,-0.99093 -6.1976,-0.91583 -7.91588,1.12612 -0.63102,0.74989 -1.11456,1.72232 -1.45063,2.91731 -0.74533,2.65022 -0.43027,7.18552 -0.25248,9.94122 l 0.062,0.96105 c 0.17779,2.7557 0.29925,7.27904 1.10811,9.9086 1.25316,4.07399 4.00442,8.51544 8.2538,13.32436 1.82823,2.06896 5.04622,5.18578 7.02854,7.10824 10.55042,10.23187 18.13045,18.11217 22.74009,23.64092 1.76786,2.12035 4.42083,5.74815 5.6925,8.19661 1.74522,3.36023 2.87807,6.94727 3.39855,10.76111 0.37311,2.73398 0.33178,7.22374 0.33178,9.98516 v 11.5277 c 0,2.76142 0.0373,7.24656 -0.25557,9.99111 -1.90556,17.86022 -14.46696,27.37093 -37.68418,28.53215 -2.75769,0.13792 -7.23827,0.13776 -9.9961,0.002 -22.06907,-1.08286 -34.10575,-9.576 -36.11006,-25.47942 -0.34506,-2.73796 -0.30032,-7.22628 -0.30032,-9.9877 l 0,-28.46753 a 5,5 135 0 1 5,-5 z"
       id="text2"
       style="font-size:240.922px;font-family:Haettenschweiler;-inkscape-font-specification:'Haettenschweiler, Normal';fill:#ec7445;stroke-width:20.0769"
       transform="matrix(1.0485482,0,0,0.9536996,22.610908,81.03345)"
       aria-label="LINKS"
       inkscape:label="text2"
       sodipodi:nodetypes="cccccccccccccccccccccccccccccccccccccsssscsssssccssccccssssc"
       inkscape:path-effect="#path-effect4"
       inkscape:original-d="M 91.190875,338.68137 H 21.666998 V 169.98891 h 37.055874 v 134.46455 h 32.468003 z m 42.114295,0 H 96.249296 V 169.98891 h 37.055874 z m 101.75661,0 h -38.11462 l -25.17446,-89.8752 v 89.8752 H 140.83398 V 169.98891 h 42.1143 l 21.17478,76.93505 v -76.93505 h 30.93872 z m 100.58022,0 h -40.70264 l -14.23417,-62.58326 v 62.58326 H 243.64932 V 169.98891 h 37.05587 v 56.23082 l 16.23401,-56.23082 h 34.3502 l -22.82171,76.93505 z m 5.17606,-67.52404 h 33.76202 v 38.7028 c 0,3.84283 2.31354,5.76425 6.94062,5.76425 4.47023,0 6.70535,-1.92142 6.70535,-5.76425 v -19.99841 c 0,-6.11716 -4.07811,-13.29306 -12.23432,-21.52769 -15.76345,-15.29291 -25.56659,-25.5666 -29.40942,-30.82108 -3.84283,-5.25449 -5.76425,-11.01873 -5.76425,-17.29274 v -18.93967 c 0,-21.88061 14.27337,-32.82092 42.82012,-32.82092 25.56659,0 38.34989,9.95999 38.34989,29.87998 v 29.17415 h -33.76202 v -31.05636 c 0,-3.37228 -1.84299,-5.05842 -5.52897,-5.05842 -4.31338,0 -6.47007,3.25464 -6.47007,9.76393 l 0.70582,10.94031 c 0,6.27401 4.15653,13.56754 12.4696,21.88061 15.44975,14.82235 25.25289,25.17446 29.40942,31.05635 4.23496,5.88189 6.35244,12.54802 6.35244,19.99841 v 21.5277 c 0,22.42959 -14.31259,33.64438 -42.93776,33.64438 -27.60565,0 -41.40847,-10.19527 -41.40847,-30.5858 z" />
  </g>
  <g
     inkscape:groupmode="layer"
     id="layer3"
     inkscape:label="FIL">
    <g
       id="g3"
       transform="matrix(1.2059131,0,0,1.2059131,-163.76382,-106.44804)">
      <path
         d="M 86.190875,338.68137 H 26.666998 a 5,5 45 0 1 -5,-5 V 174.98891 a 5,5 135 0 1 5,-5 h 27.055874 a 5,5 45 0 1 5,5 v 124.46455 a 5,5 45 0 0 5,5 l 22.468003,0 a 5,5 45 0 1 5,5 v 24.22791 a 5,5 135 0 1 -5,5 z"
         id="text2-7"
         style="font-size:240.922px;font-family:Haettenschweiler;-inkscape-font-specification:'Haettenschweiler, Normal';fill:#ec7445;stroke-width:20.0769"
         transform="matrix(1.6409148,0,0,1.4924825,809.57067,-79.05416)"
         aria-label="LINKS"
         inkscape:label="text2"
         sodipodi:nodetypes="ccccccc"
         inkscape:path-effect="#path-effect4-7"
         inkscape:original-d="M 91.190875,338.68137 H 21.666998 V 169.98891 h 37.055874 v 134.46455 h 32.468003 z" />
      <path
         d="m 612.16182,426.4667 h 60.85476 c 5.6736,0 9.45602,-3.77641 9.45602,-9.44401 v -81.52593 c 0,-4.722 2.5246,-7.23762 7.25563,-7.23762 h 24.59166 c 5.6736,0 9.46202,-3.77641 9.46202,-9.44401 v -22.03404 c 0,-5.6646 -3.78541,-9.44101 -9.46202,-9.44101 h -24.59166 c -4.73103,0 -7.25563,-2.5186 -7.25563,-7.24062 V 230.682 c 0,-4.72201 2.5246,-7.24063 7.25563,-7.24063 h 26.80105 c 5.67363,0 9.45604,-3.77641 9.45604,-9.44098 v -29.90508 c 0,-5.6646 -3.78241,-9.44401 -9.45604,-9.44401 H 612.16182 c -5.67362,0 -9.45902,3.78242 -9.45902,9.44401 v 232.92738 c 0,5.6676 3.78239,9.44401 9.45902,9.44401 z"
         fill="#00ffa1"
         id="path1-3"
         style="stroke-width:3.00192"
         sodipodi:nodetypes="sssssssssssssssssssss" />
      <path
         d="m 745.66994,417.02269 c 0,5.6676 3.78241,9.44401 9.46204,9.44401 h 60.85476 c 5.6736,0 9.45602,-3.77641 9.45602,-9.44401 V 184.09531 c 0,-5.6646 -3.78242,-9.44401 -9.45602,-9.44401 h -60.85776 c -5.67663,0 -9.46204,3.78242 -9.46204,9.44401 v 232.92738 z"
         fill="#ffffff"
         id="path2-2"
         style="stroke-width:3.00192"
         sodipodi:nodetypes="cssssssscc" />
    </g>
  </g>
  <g
     inkscape:groupmode="layer"
     id="layer4"
     inkscape:label="FL"
     transform="translate(-1613.9566,809.16625)">
    <path
       d="M 86.190875,338.68137 H 26.666998 a 5,5 45 0 1 -5,-5 V 174.98891 a 5,5 135 0 1 5,-5 h 27.055874 a 5,5 45 0 1 5,5 v 124.46455 a 5,5 45 0 0 5,5 l 22.468003,0 a 5,5 45 0 1 5,5 v 24.22791 a 5,5 135 0 1 -5,5 z"
       id="text2-7-2"
       style="font-size:240.922px;font-family:Haettenschweiler;-inkscape-font-specification:'Haettenschweiler, Normal';fill:#ec7445;stroke-width:20.0769"
       transform="matrix(2.6384826,0,0,2.3998132,2879.9663,-1163.5591)"
       aria-label="LINKS"
       inkscape:label="text2"
       sodipodi:nodetypes="ccccccc"
       inkscape:path-effect="#path-effect4-7-5-5"
       inkscape:original-d="M 91.190875,338.68137 H 21.666998 V 169.98891 h 37.055874 v 134.46455 h 32.468003 z" />
    <path
       d="m 2722.5509,-350.715 h 97.8504 c 9.1228,0 15.2046,-6.07221 15.2046,-15.18535 v -131.08829 c 0,-7.59266 4.0595,-11.63762 11.6666,-11.63762 h 39.5418 c 9.1228,0 15.2143,-6.07222 15.2143,-15.18535 v -35.42928 c 0,-9.10829 -6.0867,-15.18051 -15.2143,-15.18051 h -39.5418 c -7.6071,0 -11.6666,-4.04975 -11.6666,-11.64244 v -79.46 c 0,-7.59269 4.0595,-11.64246 11.6666,-11.64246 h 43.0943 c 9.1229,0 15.2047,-6.07223 15.2047,-15.18048 v -48.08538 c 0,-9.10831 -6.0818,-15.18535 -15.2047,-15.18535 h -167.8159 c -9.1228,0 -15.2095,6.08188 -15.2095,15.18535 v 374.53181 c 0,9.11314 6.0818,15.18535 15.2095,15.18535 z"
       fill="#00ffa1"
       id="path1-3-1"
       style="stroke-width:4.82688"
       sodipodi:nodetypes="sssssssssssssssssssss" />
  </g>
</svg>
