<?xml version="1.0" encoding="UTF-8" standalone="no"?>
<svg
   height="1536"
   width="1536"
   viewBox="0 0 1536 1536"
   version="1.1"
   id="svg1"
   sodipodi:docname="imdb.svg"
   inkscape:version="1.3.2 (091e20e, 2023-11-25, custom)"
   xmlns:inkscape="http://www.inkscape.org/namespaces/inkscape"
   xmlns:sodipodi="http://sodipodi.sourceforge.net/DTD/sodipodi-0.dtd"
   xmlns="http://www.w3.org/2000/svg"
   xmlns:svg="http://www.w3.org/2000/svg">
  <defs
     id="defs1" />
  <sodipodi:namedview
     id="namedview1"
     pagecolor="#ffffff"
     bordercolor="#000000"
     borderopacity="0.25"
     inkscape:showpageshadow="2"
     inkscape:pageopacity="0.0"
     inkscape:pagecheckerboard="0"
     inkscape:deskcolor="#d1d1d1"
     inkscape:zoom="0.48875"
     inkscape:cx="1198.977"
     inkscape:cy="1071.0997"
     inkscape:window-width="2560"
     inkscape:window-height="1369"
     inkscape:window-x="-8"
     inkscape:window-y="-8"
     inkscape:window-maximized="1"
     inkscape:current-layer="svg1" />
  <path
     d="m 922,669 v 182 c 0,36 7,69 -38,68 V 610 c 44,0 38,23 38,59 z m 316,96 v 121 c 0,20 6,53 -23,53 -6,0 -11,-3 -14,-9 -8,-19 -4,-163 -4,-165 0,-14 -4,-47 18,-47 27,0 23,27 23,47 z M 180,1001 H 302 V 529 H 180 Z m 434,0 H 720 V 529 H 561 L 533,750 C 523,676 513,602 501,529 H 343 v 472 H 450 V 689 l 45,312 h 76 l 43,-319 z m 425,-305 c 0,-30 1,-62 -5,-90 -16,-83 -116,-77 -181,-77 h -91 v 472 c 318,0 277,22 277,-305 z m 317,197 V 760 c 0,-64 -3,-111 -82,-111 -33,0 -55,10 -77,34 V 529 h -117 v 472 h 110 l 7,-30 c 21,25 44,36 77,36 73,0 82,-56 82,-114 z m 180,-733 v 1216 c 0,88 -72,160 -160,160 H 160 C 72,1536 0,1464 0,1376 V 160 C 0,72 72,0 160,0 h 1216 c 88,0 160,72 160,160 z"
     id="path1" />
</svg>
